HIERARCHY
ROOT Hips
{
	OFFSET 0.000000 8.830580 0.000000
	CHANNELS 6 Xposition Yposition Zposition Zrotation Yrotation Xrotation 
	JOINT Spine
	{
		OFFSET 0.000000 0.010000 0.000000
		CHANNELS 3 Zrotation Yrotation Xrotation
		JOINT Spine1
		{
			OFFSET 0.000000 2.459130 0.000000
			CHANNELS 3 Zrotation Yrotation Xrotation
			JOINT Neck
			{
				OFFSET 0.000000 2.484630 0.000000
				CHANNELS 3 Zrotation Yrotation Xrotation
				JOINT Head_virtual
				{
					OFFSET 0.000000 0.000000 0.000000
					CHANNELS 3 Zrotation Yrotation Xrotation
					JOINT Head
					{
						OFFSET 0.000000 0.927525 0.000000
						CHANNELS 3 Zrotation Yrotation Xrotation
						End Site
						{
							OFFSET 0.000000 0.000000 0.000000
						}
					}
				}
				JOINT LeftUpArm_virtual
				{
					OFFSET 0.000000 0.000000 0.000000
					CHANNELS 3 Zrotation Yrotation Xrotation
					JOINT LeftUpArm
					{
						OFFSET 1.248820 0.000000 0.000000
						CHANNELS 3 Zrotation Yrotation Xrotation
						JOINT LeftForeArm
						{
							OFFSET 2.597580 0.000000 0.000000
							CHANNELS 3 Zrotation Yrotation Xrotation
							JOINT LeftHand
							{
								OFFSET 2.455420 0.000000 0.000000
								CHANNELS 3 Zrotation Yrotation Xrotation
								End Site
								{
									OFFSET 0.000000 0.000000 0.000000
								}
							}
						}
					}
				}
				JOINT RightUpArm_virtual
				{
					OFFSET -0.000000 -0.000000 -0.000000
					CHANNELS 3 Zrotation Yrotation Xrotation
					JOINT RightUpArm
					{
						OFFSET -1.248820 -0.000000 -0.000000
						CHANNELS 3 Zrotation Yrotation Xrotation
						JOINT RightForeArm
						{
							OFFSET -2.597580 -0.000000 -0.000000
							CHANNELS 3 Zrotation Yrotation Xrotation
							JOINT RightHand
							{
								OFFSET -2.455420 -0.000000 -0.000000
								CHANNELS 3 Zrotation Yrotation Xrotation
								End Site
								{
									OFFSET 0.000000 0.000000 0.000000
								}
							}
						}
					}
				}
			}
		}
	}
	JOINT LeftUpLeg
	{
		OFFSET 1.271939 0.000000 0.000000
		CHANNELS 3 Zrotation Yrotation Xrotation
		JOINT LeftLowLeg
		{
			OFFSET 0.000000 -4.342910 0.000000
			CHANNELS 3 Zrotation Yrotation Xrotation
			JOINT LeftFoot
			{
				OFFSET 0.000000 -4.487670 0.000000
				CHANNELS 3 Zrotation Yrotation Xrotation
				JOINT LeftToeBase
				{
					OFFSET 0.000000 0.000000 1.515070
					CHANNELS 3 Zrotation Yrotation Xrotation
					End Site
					{
						OFFSET 0.000000 0.000000 0.000000
					}
				}
			}
		}
	}
	JOINT RightUpLeg
	{
		OFFSET -1.271939 0.000000 0.000000
		CHANNELS 3 Zrotation Yrotation Xrotation
		JOINT RightLowLeg
		{
			OFFSET 0.000000 -4.342910 0.000000
			CHANNELS 3 Zrotation Yrotation Xrotation
			JOINT RightFoot
			{
				OFFSET 0.000000 -4.487670 0.000000
				CHANNELS 3 Zrotation Yrotation Xrotation
				JOINT RightToeBase
				{
					OFFSET 0.000000 0.000000 1.515070
					CHANNELS 3 Zrotation Yrotation Xrotation
					End Site
					{
						OFFSET 0.000000 0.000000 0.000000
					}
				}
			}
		}
	}
}
MOTION
Frames: 11
Frame Time: 0.041667
-18.944529 9.139245 34.442514 -176.278191 1.751374 -174.826431 0.527014 -1.514710 -6.791984 4.478809 -1.532100 -4.162521 0.000000 0.000000 0.000000 -7.645613 -7.078549 18.125946 20.204522 12.421367 -86.632194 -23.947100 11.448800 -15.519600 20.875900 -10.702900 -25.667000 0.000000 -5.035020 0.000000 20.871401 6.107990 27.323200 19.008200 -9.454140 -15.283997 -11.838600 3.258580 -48.188499 0.000000 17.481800 0.000000 -25.059500 -11.918500 49.008499 3.282261 1.432918 -3.687915 0.000000 0.000000 7.751270 -17.742936 6.856809 1.330417 0.000000 0.000000 -32.151199 6.307007 8.272128 -2.752560 0.000000 0.000000 11.403700 12.546355 -17.444164 1.317922 0.000000 0.000000 -27.491600 
-18.931794 9.138515 34.435003 -176.304555 1.710936 -174.852668 0.464690 -1.534132 -6.906408 4.514765 -1.549037 -4.001415 0.000000 0.000000 0.000000 -7.643261 -7.096797 18.087091 20.075153 12.448449 -86.703361 -24.002100 11.438400 -15.604400 20.834700 -10.769000 -25.743799 0.000000 -5.073980 0.000000 21.123100 6.070210 27.022699 19.043200 -9.442650 -15.368011 -11.858200 3.308250 -48.407799 0.000000 17.470501 0.000000 -25.009300 -11.968900 48.935600 3.326757 1.784414 -3.650723 0.000000 0.000000 7.801220 -17.771934 6.543302 1.392975 0.000000 0.000000 -32.217899 6.370535 8.223805 -2.654910 0.000000 0.000000 11.366000 12.464384 -17.444426 1.277462 0.000000 0.000000 -27.382000 
-18.919153 9.137669 34.427719 -176.324819 1.680267 -174.877635 0.421859 -1.543163 -7.004143 4.532582 -1.556769 -3.877823 0.000000 0.000000 0.000000 -7.662354 -7.107366 18.031076 19.991417 12.439202 -86.752334 -24.014000 11.411500 -15.485900 20.782400 -10.730000 -25.836300 0.000000 -5.085380 0.000000 21.486601 5.825410 26.728001 19.072100 -9.398890 -15.320007 -11.885100 3.263100 -48.596199 0.000000 17.489500 0.000000 -25.099001 -11.941200 49.375801 3.382281 1.971740 -3.606718 0.000000 0.000000 7.844860 -17.834026 6.356501 1.394978 0.000000 0.000000 -32.215900 6.441410 8.197856 -2.538698 0.000000 0.000000 11.293600 12.507363 -17.438059 1.240626 0.000000 0.000000 -27.453100 
-18.907183 9.136337 34.419250 -176.336631 1.632368 -174.862755 0.406381 -1.566243 -7.178486 4.533710 -1.584629 -3.734930 0.000000 0.000000 0.000000 -7.675028 -7.078834 17.996368 19.945671 12.419267 -86.706169 -23.996500 11.401300 -15.420500 20.695900 -10.682300 -25.680300 0.000000 -5.144530 0.000000 21.750299 5.733430 26.212200 19.043600 -9.334040 -15.220001 -11.864600 3.186750 -48.554298 0.000000 17.496099 0.000000 -25.041901 -12.020000 48.978199 3.457473 1.699146 -3.533206 0.000000 0.000000 7.774250 -17.938068 6.508870 1.307429 0.000000 0.000000 -32.221901 6.517961 8.157991 -2.470667 0.000000 0.000000 11.255300 12.484948 -17.453284 1.186638 0.000000 0.000000 -27.434500 
-18.893358 9.135018 34.410556 -176.358044 1.548282 -174.863098 0.360610 -1.590907 -7.308042 4.529271 -1.602756 -3.687875 0.000000 0.000000 0.000000 -7.682438 -7.027063 18.043204 19.932042 12.418913 -86.626507 -23.982901 11.371600 -15.225400 20.670799 -10.640800 -25.786301 0.000000 -5.184450 0.000000 21.958599 5.515770 26.044100 19.029600 -9.322850 -15.182007 -11.853400 3.130860 -48.420502 0.000000 17.460300 0.000000 -25.101101 -11.918400 49.390701 3.526683 1.628903 -3.559660 0.000000 0.000000 7.905670 -18.054490 6.470162 1.217455 0.000000 0.000000 -32.181000 6.600543 8.093051 -2.408147 0.000000 0.000000 11.258500 12.399300 -17.485901 1.130757 0.000000 0.000000 -27.354500 
-18.879086 9.134259 34.403183 -176.390716 1.494293 -174.851987 0.278098 -1.610916 -7.416588 4.563956 -1.604234 -3.731244 0.000000 0.000000 0.000000 -7.713547 -6.964620 18.212895 19.984817 12.403080 -86.515731 -24.014500 11.315900 -15.242200 20.661301 -10.659900 -25.704100 0.000000 -5.231020 0.000000 22.127501 5.420430 25.882099 19.034300 -9.268740 -15.135010 -11.869800 3.049040 -48.278900 0.000000 17.497700 0.000000 -24.949900 -12.034600 49.085602 3.587199 1.564341 -3.622002 0.000000 0.000000 8.080800 -18.143694 6.458297 1.151206 0.000000 0.000000 -32.127501 6.671738 8.188567 -2.408692 0.000000 0.000000 11.342700 12.422511 -17.590552 1.026294 0.000000 0.000000 -27.306600 
-18.865817 9.133405 34.396003 -176.425401 1.433425 -174.843439 0.242428 -1.613260 -7.493907 4.537186 -1.592468 -3.851160 0.000000 0.000000 0.000000 -7.737738 -6.886984 18.436946 20.010705 12.416602 -86.402103 -24.008600 11.231900 -15.186300 20.640301 -10.654900 -25.694401 0.000000 -5.255080 0.000000 22.253099 5.282280 25.609800 19.039499 -9.250180 -15.221008 -11.861500 3.026020 -48.085098 0.000000 17.485701 0.000000 -24.970800 -11.939000 49.065899 3.647313 1.239402 -3.664298 0.000000 0.000000 8.218480 -18.268395 6.642902 1.026895 0.000000 0.000000 -32.100201 6.735669 8.245454 -2.379188 0.000000 0.000000 11.368300 12.374569 -17.692934 0.946997 0.000000 0.000000 -27.199700 
-18.851334 9.132865 34.388397 -176.462170 1.346050 -174.801877 0.147505 -1.653027 -7.659296 4.620989 -1.613942 -3.844727 0.000000 0.000000 0.000000 -7.763276 -6.846890 18.555822 20.017866 12.403287 -86.331397 -24.060801 11.144300 -15.278700 20.600100 -10.624500 -25.728500 0.000000 -5.308320 0.000000 22.327801 5.108820 25.707399 19.010700 -9.208940 -15.350006 -11.838400 3.036190 -47.976398 0.000000 17.476900 0.000000 -24.986000 -11.840000 48.979198 3.703163 1.167981 -3.811963 0.000000 0.000000 8.480860 -18.381153 6.618319 0.949528 0.000000 0.000000 -32.074301 6.804400 8.257921 -2.379577 0.000000 0.000000 11.392900 12.300602 -17.790543 0.921573 0.000000 0.000000 -27.261300 
-18.837007 9.132579 34.382873 -176.476201 1.330283 -174.836909 0.101451 -1.657554 -7.715918 4.652481 -1.611539 -3.801316 0.000000 0.000000 0.000000 -7.768716 -6.792172 18.508561 20.090694 12.402631 -86.290684 -24.098200 11.124500 -15.193100 20.603300 -10.577400 -25.792000 0.000000 -5.316670 0.000000 22.391800 5.077020 25.761400 19.031200 -9.141160 -15.386993 -11.867400 2.987220 -47.852200 0.000000 17.481701 0.000000 -24.903700 -11.861700 48.981499 3.773997 1.157366 -3.876702 0.000000 0.000000 8.728280 -18.473590 6.625906 0.868401 0.000000 0.000000 -32.036301 6.890451 8.374100 -2.375410 0.000000 0.000000 11.522600 12.256816 -17.885524 0.857546 0.000000 0.000000 -27.134400 
-18.822735 9.132843 34.377945 -176.501722 1.293491 -174.900135 0.034440 -1.667759 -7.783928 4.719291 -1.619063 -3.609573 0.000000 0.000000 0.000000 -7.692852 -6.841796 18.326986 20.011911 12.455608 -86.352825 -24.147100 11.140700 -15.097700 20.592800 -10.588200 -25.874201 0.000000 -5.229080 0.000000 22.429300 5.050580 25.758699 18.992701 -9.109720 -15.315002 -11.817800 2.898070 -48.022499 0.000000 17.559700 0.000000 -24.819901 -11.992700 49.210098 3.832880 1.109544 -3.923347 0.000000 0.000000 8.982460 -18.594750 6.645549 0.799673 0.000000 0.000000 -32.004999 6.972571 8.394821 -2.353935 0.000000 0.000000 11.665800 12.264228 -17.921213 0.812315 0.000000 0.000000 -27.054200 
-18.806535 9.133497 34.376472 -176.502082 1.245784 -175.062546 0.017255 -1.665263 -7.632513 4.720358 -1.614351 -3.588156 0.000000 0.000000 0.000000 -7.588208 -6.905727 18.133866 20.069724 12.476199 -86.334572 -24.083099 11.131800 -14.965700 20.514700 -10.560500 -25.681101 0.000000 -5.131500 0.000000 22.512199 5.086480 25.680201 18.974100 -9.110520 -15.165985 -11.783900 2.842430 -48.189899 0.000000 17.500299 0.000000 -24.821800 -12.067600 48.939800 3.935326 1.306873 -3.947498 0.000000 0.000000 9.334230 -18.698150 6.419665 0.796394 0.000000 0.000000 -31.984301 7.103130 8.440915 -2.287532 0.000000 0.000000 11.843500 12.304936 -18.001695 0.838868 0.000000 0.000000 -27.289400 
